<svg xmlns="http://www.w3.org/2000/svg" viewBox="0 0 24 24" width="24" height="24">
  <!-- Official Node.js Hexagon with internal letterforms vector -->
  <path fill="#5FA04E" d="M12 1.5c-.37 0-.74.1-1.06.28L3.2 6.22C2.56 6.59 2.17 7.27 2.17 8.01v9.28c0 .74.39 1.42 1.03 1.79l7.74 4.44c.32.18.69.28 1.06.28s.74-.1 1.06-.28l7.74-4.44c.64-.37 1.03-1.05 1.03-1.79V8.01c0-.74-.39-1.42-1.03-1.79l-7.74-4.44c-.32-.18-.69-.28-1.06-.28zm.05 3.32l6.23 3.57c.21.12.34.34.34.58v7.14c0 .24-.13.46-.34.58l-6.23 3.57a.69.69 0 0 1-.68 0l-6.23-3.57a.68.68 0 0 1-.34-.58V9.07c0-.24.13-.46.34-.58l6.23-3.57c.21-.12.47-.12.68 0zm-.05 2.17a.68.68 0 0 0-.34.09l-3.8 2.18c-.21.12-.34.34-.34.58v4.36c0 .24.13.46.34.58l3.8 2.18c.21.12.47.12.68 0l3.8-2.18c.21-.12.34-.34.34-.58V9.92c0-.24-.13-.46-.34-.58l-3.8-2.18a.68.68 0 0 0-.34-.09z"/>
</svg>
